<svg xmlns="http://www.w3.org/2000/svg" width="300" height="60">
  <!-- Wide curve: 1 cycle, amplitude 24, center y=30 -->
  <path d="M 0,30 C 75,6 75,6 150,30 C 225,54 225,54 300,30"
        stroke="rgba(26,61,43,0.09)" stroke-width="1" fill="none"/>
  <!-- Narrow curve 1: 4 cycles, amplitude 5, center y=5 -->
  <path d="M 0,5 C 18.75,0 18.75,0 37.5,5 C 56.25,10 56.25,10 75,5 C 93.75,0 93.75,0 112.5,5 C 131.25,10 131.25,10 150,5 C 168.75,0 168.75,0 187.5,5 C 206.25,10 206.25,10 225,5 C 243.75,0 243.75,0 262.5,5 C 281.25,10 281.25,10 300,5"
        stroke="rgba(26,61,43,0.09)" stroke-width="0.7" fill="none"/>
  <!-- Narrow curve 2: 4 cycles, amplitude 5, center y=15 -->
  <path d="M 0,15 C 18.75,10 18.75,10 37.5,15 C 56.25,20 56.25,20 75,15 C 93.75,10 93.75,10 112.5,15 C 131.25,20 131.25,20 150,15 C 168.75,10 168.75,10 187.5,15 C 206.25,20 206.25,20 225,15 C 243.75,10 243.75,10 262.5,15 C 281.25,20 281.25,20 300,15"
        stroke="rgba(26,61,43,0.09)" stroke-width="0.7" fill="none"/>
  <!-- Narrow curve 3: 4 cycles, amplitude 5, center y=25 -->
  <path d="M 0,25 C 18.75,20 18.75,20 37.5,25 C 56.25,30 56.25,30 75,25 C 93.75,20 93.75,20 112.5,25 C 131.25,30 131.25,30 150,25 C 168.75,20 168.75,20 187.5,25 C 206.25,30 206.25,30 225,25 C 243.75,20 243.75,20 262.5,25 C 281.25,30 281.25,30 300,25"
        stroke="rgba(26,61,43,0.09)" stroke-width="0.7" fill="none"/>
  <!-- Narrow curve 4: 4 cycles, amplitude 5, center y=35 -->
  <path d="M 0,35 C 18.75,30 18.75,30 37.5,35 C 56.25,40 56.25,40 75,35 C 93.75,30 93.75,30 112.5,35 C 131.25,40 131.25,40 150,35 C 168.75,30 168.75,30 187.5,35 C 206.25,40 206.25,40 225,35 C 243.75,30 243.75,30 262.5,35 C 281.25,40 281.25,40 300,35"
        stroke="rgba(26,61,43,0.09)" stroke-width="0.7" fill="none"/>
  <!-- Narrow curve 5: 4 cycles, amplitude 5, center y=45 -->
  <path d="M 0,45 C 18.75,40 18.75,40 37.5,45 C 56.25,50 56.25,50 75,45 C 93.75,40 93.75,40 112.5,45 C 131.25,50 131.25,50 150,45 C 168.75,40 168.75,40 187.5,45 C 206.25,50 206.25,50 225,45 C 243.75,40 243.75,40 262.5,45 C 281.25,50 281.25,50 300,45"
        stroke="rgba(26,61,43,0.09)" stroke-width="0.7" fill="none"/>
  <!-- Narrow curve 6: 4 cycles, amplitude 5, center y=55 -->
  <path d="M 0,55 C 18.75,50 18.75,50 37.5,55 C 56.25,60 56.25,60 75,55 C 93.75,50 93.75,50 112.5,55 C 131.25,60 131.25,60 150,55 C 168.75,50 168.75,50 187.5,55 C 206.25,60 206.25,60 225,55 C 243.75,50 243.75,50 262.5,55 C 281.25,60 281.25,60 300,55"
        stroke="rgba(26,61,43,0.09)" stroke-width="0.7" fill="none"/>
</svg>
